<svg width="16" height="16" viewBox="0 0 16 16" fill="none" xmlns="http://www.w3.org/2000/svg">
<path d="M13.4088 2.29906C11.928 0.817392 9.95867 0.000785199 7.86062 0C3.53732 0 0.0188448 3.5169 0.0172744 7.84021C0.0164892 9.22216 0.377681 10.5711 1.06394 11.7599L0 15.704L4.10894 14.7327C5.25455 15.3577 6.54384 15.6867 7.8567 15.6875H7.85984C12.1824 15.6875 15.7008 12.1698 15.7032 7.84727C15.7048 5.75158 14.8897 3.78152 13.4088 2.29906ZM11.6979 10.6426C11.5346 11.1004 10.7345 11.5416 10.3748 11.5738C10.0152 11.6068 9.67836 11.7364 8.02316 11.0839C6.03111 10.2987 4.77322 8.25636 4.67586 8.12602C4.57771 7.99489 3.87574 7.06365 3.87574 6.09942C3.87574 5.1352 4.38219 4.66094 4.562 4.46542C4.74181 4.26912 4.95382 4.22044 5.08495 4.22044C5.21529 4.22044 5.34642 4.22044 5.46027 4.22515C5.60004 4.23065 5.75472 4.23772 5.90155 4.56357C6.07587 4.95146 6.45669 5.9204 6.50537 6.01855C6.55405 6.1167 6.58703 6.23134 6.52186 6.36168C6.45669 6.49202 6.42371 6.57368 6.32635 6.68832C6.2282 6.80296 6.12062 6.94351 6.03268 7.03145C5.93453 7.12882 5.83246 7.2356 5.94631 7.43112C6.06095 7.62742 6.45355 8.26893 7.03617 8.78794C7.78524 9.45536 8.41576 9.66187 8.61206 9.7608C8.80836 9.85895 8.92221 9.84246 9.03685 9.71134C9.15149 9.58099 9.52681 9.13971 9.65716 8.94341C9.7875 8.74711 9.91863 8.78009 10.0984 8.84526C10.2783 8.91043 11.2417 9.38469 11.4372 9.48284C11.6335 9.58099 11.7638 9.62968 11.8125 9.71134C11.8612 9.79221 11.8612 10.1848 11.6979 10.6426Z" fill="url(#paint0_linear_360_164)"/>
<defs>
<linearGradient id="paint0_linear_360_164" x1="7.8516" y1="0" x2="7.8516" y2="15.704" gradientUnits="userSpaceOnUse">
<stop stop-color="#03FDCF"/>
<stop offset="1" stop-color="#4E61F7"/>
</linearGradient>
</defs>
</svg>
