<svg width="16" height="16" viewBox="0 0 16 16" fill="none" xmlns="http://www.w3.org/2000/svg">
<path d="M8.14791 0C6.01542 0 5.74802 0.00904666 4.91051 0.0472437C4.07476 0.0853705 3.50398 0.218125 3.00452 0.412196C2.48818 0.612859 2.0503 0.88136 1.61379 1.31787C1.17726 1.75437 0.908757 2.19231 0.708118 2.70864C0.514 3.20808 0.381292 3.77886 0.343119 4.61461C0.304922 5.45212 0.295898 5.71952 0.295898 7.85201C0.295898 9.98445 0.304922 10.2519 0.343119 11.0894C0.381292 11.9251 0.514 12.4959 0.708118 12.9953C0.90878 13.5117 1.17728 13.9496 1.61379 14.3861C2.05032 14.8226 2.48818 15.0911 3.00452 15.2918C3.50398 15.4858 4.07476 15.6186 4.91051 15.6567C5.74802 15.6949 6.01542 15.704 8.14791 15.704C10.2803 15.704 10.5478 15.6949 11.3853 15.6567C12.221 15.6186 12.7918 15.4858 13.2912 15.2918C13.8076 15.0911 14.2455 14.8226 14.682 14.3861C15.1185 13.9496 15.387 13.5117 15.5877 12.9953C15.7817 12.4959 15.9145 11.9251 15.9526 11.0894C15.9908 10.2519 15.9999 9.98445 15.9999 7.85201C15.9999 5.71952 15.9908 5.45212 15.9526 4.61461C15.9145 3.77886 15.7817 3.20808 15.5877 2.70864C15.387 2.19231 15.1185 1.75437 14.682 1.31787C14.2455 0.88136 13.8076 0.612859 13.2912 0.412196C12.7918 0.218125 12.221 0.0853705 11.3853 0.0472437C10.5478 0.00904666 10.2803 0 8.14791 0ZM8.14791 1.41476C10.2444 1.41476 10.4928 1.42278 11.3208 1.46056C12.0863 1.49546 12.5021 1.62337 12.7787 1.7309C13.1453 1.87336 13.4068 2.04349 13.6816 2.31826C13.9564 2.59303 14.1265 2.85461 14.269 3.2211C14.3765 3.49778 14.5044 3.91356 14.5393 4.67911C14.5771 5.50708 14.5851 5.75543 14.5851 7.85199C14.5851 9.94854 14.5771 10.1969 14.5393 11.0249C14.5044 11.7904 14.3765 12.2062 14.269 12.4828C14.1265 12.8494 13.9564 13.1109 13.6816 13.3857C13.4068 13.6605 13.1453 13.8306 12.7788 13.9731C12.5021 14.0806 12.0863 14.2085 11.3208 14.2434C10.4929 14.2812 10.2446 14.2892 8.14789 14.2892C6.05116 14.2892 5.80288 14.2812 4.97501 14.2434C4.20943 14.2085 3.79368 14.0806 3.51702 13.9731C3.15048 13.8306 2.88892 13.6605 2.61418 13.3857C2.33942 13.1109 2.16926 12.8494 2.0268 12.4829C1.91927 12.2062 1.79138 11.7904 1.75645 11.0249C1.71868 10.1969 1.71066 9.94854 1.71066 7.85199C1.71066 5.75543 1.71868 5.50708 1.75645 4.67911C1.79138 3.91353 1.91927 3.49778 2.0268 3.22113C2.16926 2.85458 2.33942 2.59303 2.61416 2.31828C2.88892 2.04349 3.15051 1.87336 3.517 1.7309C3.79368 1.62337 4.20946 1.49546 4.97501 1.46056C5.80298 1.42278 6.05133 1.41476 8.14789 1.41476" fill="url(#paint0_linear_360_156)"/>
<path d="M8.14833 10.4688C6.70278 10.4688 5.53097 9.29696 5.53097 7.85146C5.53097 6.40591 6.70278 5.2341 8.14833 5.2341C9.59383 5.2341 10.7656 6.40591 10.7656 7.85146C10.7656 9.29696 9.59383 10.4688 8.14833 10.4688ZM8.14833 3.81934C5.92143 3.81934 4.11621 5.62456 4.11621 7.85146C4.11621 10.0783 5.92143 11.8835 8.14833 11.8835C10.3752 11.8835 12.1804 10.0783 12.1804 7.85146C12.1804 5.62456 10.3752 3.81934 8.14833 3.81934M13.282 3.66003C13.282 4.18043 12.8601 4.60226 12.3397 4.60226C11.8194 4.60226 11.3975 4.18043 11.3975 3.66003C11.3975 3.13965 11.8194 2.71777 12.3397 2.71777C12.8601 2.71777 13.282 3.13965 13.282 3.66003" fill="url(#paint1_linear_360_156)"/>
<defs>
<linearGradient id="paint0_linear_360_156" x1="8.14789" y1="0" x2="8.14789" y2="15.704" gradientUnits="userSpaceOnUse">
<stop stop-color="#03FDCF"/>
<stop offset="1" stop-color="#4E61F7"/>
</linearGradient>
<linearGradient id="paint1_linear_360_156" x1="8.69909" y1="2.71777" x2="8.69909" y2="11.8835" gradientUnits="userSpaceOnUse">
<stop stop-color="#03FDCF"/>
<stop offset="1" stop-color="#4E61F7"/>
</linearGradient>
</defs>
</svg>
