<svg width="945" height="943" viewBox="0 0 945 943" fill="none" xmlns="http://www.w3.org/2000/svg">
<mask id="path-1-inside-1_384_485" fill="white">
<path d="M554.985 821.297C606.626 789.163 643.387 737.83 657.181 678.592C670.974 619.353 660.67 557.062 628.536 505.421C596.401 453.779 545.069 417.019 485.831 403.225C426.592 389.432 364.301 399.735 312.66 431.87L433.822 626.583L554.985 821.297Z"/>
</mask>
<path d="M554.985 821.297C606.626 789.163 643.387 737.83 657.181 678.592C670.974 619.353 660.67 557.062 628.536 505.421C596.401 453.779 545.069 417.019 485.831 403.225C426.592 389.432 364.301 399.735 312.66 431.87L433.822 626.583L554.985 821.297Z" stroke="url(#paint0_linear_384_485)" stroke-width="47.9204" mask="url(#path-1-inside-1_384_485)"/>
<mask id="path-2-inside-2_384_485" fill="white">
<path d="M631.753 510.59C683.394 478.455 720.155 427.123 733.948 367.885C747.742 308.646 737.438 246.355 705.303 194.714C673.169 143.072 621.836 106.311 562.598 92.518C503.36 78.7246 441.068 89.0284 389.427 121.163L510.59 315.876L631.753 510.59Z"/>
</mask>
<path d="M631.753 510.59C683.394 478.455 720.155 427.123 733.948 367.885C747.742 308.646 737.438 246.355 705.303 194.714C673.169 143.072 621.836 106.311 562.598 92.518C503.36 78.7246 441.068 89.0284 389.427 121.163L510.59 315.876L631.753 510.59Z" stroke="url(#paint1_linear_384_485)" stroke-width="47.9204" mask="url(#path-2-inside-2_384_485)"/>
<path d="M298.8 192.559L301.706 190.75C348.252 161.787 409.465 176.04 438.429 222.586C467.392 269.132 453.139 330.345 406.593 359.308L316.502 415.369L265.867 333.996C235.904 285.845 250.649 222.521 298.8 192.559Z" stroke="url(#paint2_linear_384_485)" stroke-width="23.9602"/>
<defs>
<linearGradient id="paint0_linear_384_485" x1="628.536" y1="505.421" x2="239.109" y2="747.746" gradientUnits="userSpaceOnUse">
<stop stop-color="#08E2C5"/>
<stop offset="1" stop-color="#08E2C5" stop-opacity="0"/>
</linearGradient>
<linearGradient id="paint1_linear_384_485" x1="705.303" y1="194.714" x2="315.876" y2="437.039" gradientUnits="userSpaceOnUse">
<stop stop-color="#08E2C5"/>
<stop offset="1" stop-color="#08E2C5" stop-opacity="0"/>
</linearGradient>
<linearGradient id="paint2_linear_384_485" x1="292.471" y1="182.387" x2="410.017" y2="371.288" gradientUnits="userSpaceOnUse">
<stop stop-color="#08E2C5"/>
<stop offset="1" stop-color="#08E2C5" stop-opacity="0"/>
</linearGradient>
</defs>
</svg>
