<svg width="459" height="682" viewBox="0 0 459 682" fill="none" xmlns="http://www.w3.org/2000/svg">
<path d="M118.423 12.7374C173.245 12.7374 217.686 57.1793 217.686 112.001C217.686 166.823 173.245 211.265 118.423 211.265H12.3134L12.3134 115.424C12.3134 58.7117 58.2877 12.7374 115 12.7374H118.423ZM12.3134 669.601L12.3134 235.555C65.5929 238.494 116.096 260.957 154.025 298.886C194.787 339.648 217.687 394.933 217.686 452.578C217.686 510.224 194.787 565.509 154.025 606.27C116.096 644.199 65.5929 666.662 12.3134 669.601ZM241.647 446.356V112.001L241.647 12.3102C294.926 15.2492 345.43 37.7125 383.359 75.6414C424.12 116.403 447.02 171.688 447.02 229.333C447.02 286.979 424.12 342.264 383.359 383.025C345.43 420.954 294.926 443.417 241.647 446.356Z" stroke="url(#paint0_linear_393_37)" stroke-width="23.9602"/>
<defs>
<linearGradient id="paint0_linear_393_37" x1="32.5" y1="19" x2="369.5" y2="682" gradientUnits="userSpaceOnUse">
<stop stop-color="#08E2C5"/>
<stop offset="1" stop-color="#4D8AFB"/>
</linearGradient>
</defs>
</svg>
